<svg width="48" height="53" viewBox="0 0 48 53" fill="none" xmlns="http://www.w3.org/2000/svg">
<path d="M23.3138 0.777159C18.8018 -1.30909 13.1718 1.26695 10.7381 6.53052C8.65437 11.0371 9.59023 16.0541 12.7345 18.711L1.18788 40.1307C1.00089 40.4688 0.886079 40.842 0.850711 41.2267C0.815343 41.6115 0.860186 41.9994 0.982402 42.3659C1.10462 42.7324 1.30155 43.0696 1.56075 43.3561C1.81994 43.6426 2.13577 43.8723 2.48825 44.0305L3.84976 44.66C5.34741 45.3525 7.06184 44.6612 7.6632 43.1247L16.5031 20.4535C20.5652 21.1253 24.9924 18.5914 27.0762 14.0848C29.5099 8.82127 27.8258 2.86341 23.3138 0.777159ZM46.4131 11.4577L37.8496 24.0239L36.1477 23.237L41.3075 9.09698L40.172 8.57196L32.7412 21.662L31.0393 20.875L35.0663 6.21123L33.9308 5.68621L25.747 23.3857C25.58 23.7468 25.5634 24.1595 25.7006 24.5329C25.8379 24.9062 26.1179 25.2098 26.479 25.3768L30.0243 27.0161L18.6124 48.1873C18.4254 48.5254 18.3106 48.8987 18.2753 49.2834C18.2399 49.6681 18.2847 50.056 18.4069 50.4226C18.5292 50.7891 18.7261 51.1263 18.9853 51.4128C19.2445 51.6993 19.5603 51.9289 19.9128 52.0872L21.2743 52.7167C22.772 53.4092 24.4864 52.7178 25.0877 51.1814L33.8257 28.7737L37.371 30.413C37.7321 30.5799 38.1447 30.5966 38.5181 30.4593C38.8915 30.3221 39.1951 30.0421 39.3621 29.681L47.5459 11.9815L46.4104 11.4564L46.4131 11.4577Z" fill="#2E5834"/>
</svg>
