<svg width="173" height="90" viewBox="0 0 173 90" fill="none" xmlns="http://www.w3.org/2000/svg">
<g clip-path="url(#clip0_34_474)">
<g clip-path="url(#clip1_34_474)">
<path d="M24.6754 19.4061C20.1634 17.3198 14.5334 19.8959 12.0997 25.1594C10.0159 29.666 10.9518 34.683 14.0961 37.3399L2.54945 58.7596C2.36246 59.0977 2.24765 59.4709 2.21228 59.8556C2.17692 60.2404 2.22176 60.6283 2.34397 60.9948C2.46619 61.3613 2.66312 61.6985 2.92232 61.985C3.18152 62.2715 3.49734 62.5012 3.84982 62.6594L5.21133 63.2889C6.70898 63.9814 8.42341 63.2901 9.02477 61.7536L17.8647 39.0824C21.9268 39.7542 26.354 37.2203 28.4377 32.7137C30.8715 27.4502 29.1874 21.4923 24.6754 19.4061ZM47.7747 30.0866L39.2112 42.6528L37.5093 41.8659L42.669 27.7259L41.5335 27.2009L34.1028 40.2909L32.4009 39.504L36.4279 24.8401L35.2924 24.3151L27.1086 42.0146C26.9416 42.3757 26.9249 42.7884 27.0622 43.1618C27.1995 43.5351 27.4795 43.8387 27.8406 44.0057L31.3859 45.645L19.974 66.8163C19.787 67.1544 19.6722 67.5276 19.6368 67.9123C19.6015 68.2971 19.6463 68.6849 19.7685 69.0515C19.8907 69.418 20.0877 69.7552 20.3469 70.0417C20.6061 70.3282 20.9219 70.5578 21.2744 70.7161L22.6359 71.3456C24.1335 72.0381 25.848 71.3468 26.4493 69.8103L35.1872 47.4026L38.7326 49.0419C39.0937 49.2088 39.5063 49.2255 39.8797 49.0883C40.2531 48.951 40.5567 48.671 40.7236 48.3099L48.9075 30.6104L47.772 30.0854L47.7747 30.0866Z" fill="#2E5834"/>
</g>
<path d="M76.2628 33.124C76.1882 33.1427 76.0762 33.2453 75.9268 33.432C75.7962 33.6187 75.7028 33.8147 75.6468 34.02C75.5535 34.3187 75.5815 34.5613 75.7308 34.748C76.1228 35.2147 76.6268 35.7653 77.2428 36.4C77.8588 37.016 78.4748 37.604 79.0908 38.164C79.7255 38.724 80.2668 39.1533 80.7148 39.452C80.3788 40.348 79.8468 41.0667 79.1188 41.608C78.4095 42.1307 77.6162 42.3827 76.7388 42.364C75.8615 42.3453 75.0028 41.9533 74.1628 41.188C74.0508 41.076 73.8362 40.8333 73.5188 40.46C73.2015 40.068 72.8375 39.6107 72.4268 39.088C72.0162 38.5653 71.6055 38.0427 71.1948 37.52C70.7842 36.9973 70.4295 36.54 70.1308 36.148C69.8322 35.756 69.6455 35.5133 69.5708 35.42C69.2162 34.9533 68.8802 34.8507 68.5628 35.112C68.2455 35.3733 68.0495 35.9147 67.9748 36.736C67.9375 37.2213 67.9375 37.7813 67.9748 38.416C68.0308 39.032 68.1055 39.5827 68.1988 40.068C68.3108 40.5533 68.4228 40.8427 68.5348 40.936C68.1428 41.2347 67.6575 41.5147 67.0788 41.776C66.5002 42.0373 65.8375 42.196 65.0908 42.252C64.8108 42.2707 64.4842 42.196 64.1108 42.028C63.7375 41.86 63.4108 41.5893 63.1308 41.216C62.8695 40.824 62.7295 40.3387 62.7108 39.76C62.7108 39.6107 62.7015 39.2187 62.6828 38.584C62.6828 37.9493 62.6735 37.1747 62.6548 36.26C62.6548 35.3267 62.6548 34.3653 62.6548 33.376C62.6548 32.3867 62.6455 31.4533 62.6268 30.576C62.6268 29.6987 62.6268 28.9893 62.6268 28.448C62.6268 27.9067 62.6268 27.636 62.6268 27.636C62.6268 26.5347 62.5988 25.62 62.5428 24.892C62.4868 24.1453 62.2628 23.576 61.8708 23.184C61.5162 22.8293 61.2455 22.316 61.0588 21.644C60.8908 20.972 60.8162 20.3373 60.8348 19.74C60.9095 19.7587 61.1335 19.7867 61.5068 19.824C61.8802 19.8427 62.2442 19.8707 62.5988 19.908C62.8415 19.908 63.1868 19.908 63.6348 19.908C64.1015 19.8893 64.5962 19.8707 65.1188 19.852C65.6415 19.8333 66.1268 19.824 66.5748 19.824C67.0228 19.8053 67.3588 19.7867 67.5828 19.768C67.7508 19.768 68.0588 19.768 68.5068 19.768C68.9735 19.7493 69.5148 19.74 70.1308 19.74C70.7468 19.74 71.3722 19.7493 72.0068 19.768C72.6415 19.768 73.2295 19.7867 73.7708 19.824C74.3122 19.8613 74.7322 19.908 75.0308 19.964C76.2628 20.188 77.2148 20.5987 77.8868 21.196C78.5588 21.7933 79.0348 22.512 79.3148 23.352C79.6135 24.192 79.7908 25.1067 79.8468 26.096C79.8842 26.936 79.7908 27.8133 79.5668 28.728C79.3428 29.6427 78.9602 30.492 78.4188 31.276C77.8775 32.06 77.1588 32.676 76.2628 33.124ZM68.0308 27.104C68.0308 27.7013 68.1708 28.1493 68.4508 28.448C68.7308 28.728 68.9922 28.896 69.2348 28.952C69.5708 29.0267 70.0002 29.036 70.5228 28.98C71.0455 28.9053 71.5682 28.7747 72.0908 28.588C72.6135 28.3827 73.0522 28.1213 73.4068 27.804C73.7802 27.4867 73.9668 27.1227 73.9668 26.712C73.9668 26.1707 73.7428 25.76 73.2948 25.48C72.8468 25.1813 72.2775 24.9947 71.5868 24.92C70.9148 24.8453 70.2428 24.864 69.5708 24.976C69.0482 25.0507 68.6562 25.284 68.3948 25.676C68.1335 26.068 68.0122 26.544 68.0308 27.104ZM97.0679 34.972C97.5346 35.2893 97.8333 35.7467 97.9639 36.344C98.1133 36.9227 98.0946 37.5573 97.9079 38.248C97.7399 38.9387 97.3946 39.6013 96.8719 40.236C96.3493 40.852 95.6399 41.3653 94.7439 41.776C93.8666 42.1867 92.8026 42.4013 91.5519 42.42C90.5066 42.4387 89.4799 42.308 88.4719 42.028C87.4826 41.748 86.5773 41.3187 85.7559 40.74C84.9533 40.1613 84.2999 39.4147 83.7959 38.5C83.2919 37.5853 83.0119 36.4933 82.9559 35.224C82.9373 34.9627 82.9373 34.692 82.9559 34.412C82.9746 34.132 82.9933 33.8427 83.0119 33.544C83.0119 33.4693 83.0119 33.3947 83.0119 33.32C83.0306 33.2453 83.0493 33.1707 83.0679 33.096C83.2546 31.976 83.6373 30.9493 84.2159 30.016C84.8133 29.0827 85.5413 28.2893 86.3999 27.636C87.2586 26.9827 88.1733 26.5067 89.1439 26.208C90.1333 25.8907 91.1039 25.7787 92.0559 25.872C93.5306 26.0213 94.6693 26.4133 95.4719 27.048C96.2933 27.6827 96.8253 28.4667 97.0679 29.4C97.3293 30.3147 97.3386 31.304 97.0959 32.368C96.9653 32.8907 96.6666 33.4133 96.1999 33.936C95.7519 34.44 95.1919 34.8973 94.5199 35.308C93.8479 35.7 93.1293 36.008 92.3639 36.232C91.6173 36.4373 90.8893 36.5213 90.1799 36.484C89.8253 36.4653 89.6386 36.5773 89.6199 36.82C89.6013 37.044 89.7039 37.296 89.9279 37.576C90.1519 37.8373 90.4506 38.0147 90.8239 38.108C91.7013 38.2947 92.5226 38.304 93.2879 38.136C94.0719 37.9493 94.6693 37.6973 95.0799 37.38C95.4159 37.1187 95.7706 36.7733 96.1439 36.344C96.5173 35.896 96.8253 35.4387 97.0679 34.972ZM90.9359 32.144C91.3653 32.1067 91.7386 31.976 92.0559 31.752C92.3919 31.5093 92.5599 31.2573 92.5599 30.996C92.5786 30.6227 92.4853 30.324 92.2799 30.1C92.0933 29.8573 91.7666 29.7453 91.2999 29.764C90.7773 29.7827 90.2733 29.8573 89.7879 29.988C89.3026 30.1187 89.0133 30.3893 88.9199 30.8C88.8639 31.08 88.9479 31.3227 89.1719 31.528C89.3959 31.7333 89.6759 31.892 90.0119 32.004C90.3479 32.0973 90.6559 32.144 90.9359 32.144ZM113.451 29.904C113.377 30.296 113.209 30.66 112.947 30.996C112.686 31.332 112.378 31.612 112.023 31.836C111.687 32.0413 111.361 32.1533 111.043 32.172C110.726 32.1907 110.465 32.0787 110.259 31.836C110.614 31.5933 110.698 31.36 110.511 31.136C110.343 30.912 110.054 30.7347 109.643 30.604C109.233 30.4733 108.831 30.436 108.439 30.492C107.469 30.6413 106.75 31.0613 106.283 31.752C105.817 32.424 105.518 33.1987 105.387 34.076C105.294 34.8227 105.369 35.4947 105.611 36.092C105.873 36.6707 106.227 37.1373 106.675 37.492C107.142 37.828 107.646 38.0053 108.187 38.024C109.401 38.0427 110.409 37.8653 111.211 37.492C112.014 37.1187 112.639 36.6893 113.087 36.204C113.554 35.7 113.871 35.2893 114.039 34.972C114.487 35.2893 114.749 35.7467 114.823 36.344C114.898 36.9413 114.805 37.5853 114.543 38.276C114.282 38.9667 113.871 39.6293 113.311 40.264C112.751 40.8987 112.07 41.4213 111.267 41.832C110.465 42.224 109.55 42.42 108.523 42.42C107.982 42.42 107.338 42.3547 106.591 42.224C105.845 42.0933 105.079 41.8507 104.295 41.496C103.53 41.1413 102.821 40.628 102.167 39.956C101.533 39.284 101.038 38.416 100.683 37.352C100.347 36.288 100.245 34.9813 100.375 33.432C100.469 32.2373 100.786 31.1827 101.327 30.268C101.887 29.3347 102.569 28.5507 103.371 27.916C104.174 27.2627 105.014 26.768 105.891 26.432C106.787 26.0773 107.637 25.8907 108.439 25.872C109.242 25.8533 109.97 25.9747 110.623 26.236C111.277 26.4973 111.827 26.8427 112.275 27.272C112.723 27.6827 113.05 28.1213 113.255 28.588C113.461 29.0547 113.526 29.4933 113.451 29.904ZM120.217 25.34C119.582 25.3587 119.013 25.1813 118.509 24.808C118.024 24.4347 117.65 23.9773 117.389 23.436C117.146 22.876 117.053 22.344 117.109 21.84C117.202 21.0747 117.548 20.5333 118.145 20.216C118.742 19.8987 119.368 19.7307 120.021 19.712C120.954 19.6747 121.682 19.9173 122.205 20.44C122.728 20.9627 122.989 21.56 122.989 22.232C122.989 22.68 122.886 23.1373 122.681 23.604C122.494 24.0707 122.196 24.472 121.785 24.808C121.374 25.1253 120.852 25.3027 120.217 25.34ZM123.185 39.172C123.204 39.508 123.306 39.7973 123.493 40.04C123.698 40.264 123.941 40.4787 124.221 40.684C124.09 40.852 123.922 41.0293 123.717 41.216C123.512 41.4027 123.204 41.58 122.793 41.748C122.401 41.8973 121.832 42.0187 121.085 42.112C120.842 42.1307 120.534 42.1027 120.161 42.028C119.788 41.972 119.414 41.7947 119.041 41.496C118.686 41.1787 118.397 40.684 118.173 40.012C117.949 39.3213 117.856 38.3787 117.893 37.184C117.912 36.9787 117.912 36.5773 117.893 35.98C117.893 35.3827 117.884 34.6733 117.865 33.852C117.865 33.0307 117.856 32.1813 117.837 31.304C117.837 30.4267 117.828 29.6147 117.809 28.868C117.809 28.1027 117.8 27.4867 117.781 27.02C117.781 26.5347 117.781 26.292 117.781 26.292C117.949 26.2733 118.229 26.2547 118.621 26.236C119.032 26.1987 119.48 26.1987 119.965 26.236C120.45 26.2733 120.917 26.3667 121.365 26.516C121.832 26.6467 122.224 26.8613 122.541 27.16C122.877 27.4587 123.073 27.86 123.129 28.364C123.222 29.0733 123.26 30.0253 123.241 31.22C123.222 32.396 123.194 33.684 123.157 35.084C123.12 36.4653 123.129 37.828 123.185 39.172ZM134.076 25.816C135.737 25.6853 137.137 25.9653 138.276 26.656C139.415 27.328 140.283 28.2707 140.88 29.484C141.477 30.6787 141.785 32.004 141.804 33.46C141.841 34.804 141.645 35.9987 141.216 37.044C140.787 38.0707 140.199 38.948 139.452 39.676C138.705 40.3853 137.865 40.9267 136.932 41.3C136.017 41.6733 135.075 41.86 134.104 41.86C133.899 41.86 133.628 41.888 133.292 41.944C132.975 41.9813 132.713 42.084 132.508 42.252C132.377 42.3827 132.284 42.5227 132.228 42.672C132.191 42.8213 132.181 42.9987 132.2 43.204C132.237 43.54 132.312 43.7733 132.424 43.904C132.555 44.0533 132.667 44.212 132.76 44.38C132.555 44.604 132.265 44.8467 131.892 45.108C131.519 45.3693 131.061 45.5747 130.52 45.724C129.997 45.8733 129.372 45.892 128.644 45.78C128.196 45.7053 127.804 45.416 127.468 44.912C127.132 44.408 126.955 43.7267 126.936 42.868L126.852 29.848C126.852 28.8027 126.787 27.9533 126.656 27.3C126.525 26.628 126.46 26.292 126.46 26.292C126.703 26.2173 127.085 26.152 127.608 26.096C128.149 26.04 128.709 26.0773 129.288 26.208C129.512 26.264 129.792 26.3293 130.128 26.404C130.483 26.46 130.865 26.46 131.276 26.404C131.817 26.348 132.359 26.2453 132.9 26.096C133.441 25.928 133.833 25.8347 134.076 25.816ZM134.608 37.464C135.205 37.464 135.765 37.156 136.288 36.54C136.811 35.9053 137.072 35.0187 137.072 33.88C137.072 33.1147 136.941 32.4707 136.68 31.948C136.437 31.4067 136.129 31.0053 135.756 30.744C135.383 30.464 135.019 30.324 134.664 30.324C134.309 30.324 133.945 30.352 133.572 30.408C133.217 30.464 132.9 30.6787 132.62 31.052C132.359 31.4253 132.191 32.088 132.116 33.04C132.023 34.272 132.097 35.2053 132.34 35.84C132.601 36.4747 132.947 36.904 133.376 37.128C133.805 37.352 134.216 37.464 134.608 37.464ZM158.154 34.972C158.621 35.2893 158.919 35.7467 159.05 36.344C159.199 36.9227 159.181 37.5573 158.994 38.248C158.826 38.9387 158.481 39.6013 157.958 40.236C157.435 40.852 156.726 41.3653 155.83 41.776C154.953 42.1867 153.889 42.4013 152.638 42.42C151.593 42.4387 150.566 42.308 149.558 42.028C148.569 41.748 147.663 41.3187 146.842 40.74C146.039 40.1613 145.386 39.4147 144.882 38.5C144.378 37.5853 144.098 36.4933 144.042 35.224C144.023 34.9627 144.023 34.692 144.042 34.412C144.061 34.132 144.079 33.8427 144.098 33.544C144.098 33.4693 144.098 33.3947 144.098 33.32C144.117 33.2453 144.135 33.1707 144.154 33.096C144.341 31.976 144.723 30.9493 145.302 30.016C145.899 29.0827 146.627 28.2893 147.486 27.636C148.345 26.9827 149.259 26.5067 150.23 26.208C151.219 25.8907 152.19 25.7787 153.142 25.872C154.617 26.0213 155.755 26.4133 156.558 27.048C157.379 27.6827 157.911 28.4667 158.154 29.4C158.415 30.3147 158.425 31.304 158.182 32.368C158.051 32.8907 157.753 33.4133 157.286 33.936C156.838 34.44 156.278 34.8973 155.606 35.308C154.934 35.7 154.215 36.008 153.45 36.232C152.703 36.4373 151.975 36.5213 151.266 36.484C150.911 36.4653 150.725 36.5773 150.706 36.82C150.687 37.044 150.79 37.296 151.014 37.576C151.238 37.8373 151.537 38.0147 151.91 38.108C152.787 38.2947 153.609 38.304 154.374 38.136C155.158 37.9493 155.755 37.6973 156.166 37.38C156.502 37.1187 156.857 36.7733 157.23 36.344C157.603 35.896 157.911 35.4387 158.154 34.972ZM152.022 32.144C152.451 32.1067 152.825 31.976 153.142 31.752C153.478 31.5093 153.646 31.2573 153.646 30.996C153.665 30.6227 153.571 30.324 153.366 30.1C153.179 29.8573 152.853 29.7453 152.386 29.764C151.863 29.7827 151.359 29.8573 150.874 29.988C150.389 30.1187 150.099 30.3893 150.006 30.8C149.95 31.08 150.034 31.3227 150.258 31.528C150.482 31.7333 150.762 31.892 151.098 32.004C151.434 32.0973 151.742 32.144 152.022 32.144ZM89.6653 49.6C90.9533 49.768 91.9707 50.1787 92.7173 50.832C93.4827 51.4853 93.9867 52.2413 94.2293 53.1C94.472 53.9587 94.4533 54.7987 94.1733 55.62C94.0613 55.9373 93.8933 56.46 93.6693 57.188C93.4453 57.8973 93.184 58.728 92.8853 59.68C92.6053 60.632 92.3067 61.612 91.9893 62.62C91.6907 63.628 91.4013 64.58 91.1213 65.476C90.8413 66.372 90.5987 67.128 90.3933 67.744C90.2067 68.36 90.076 68.752 90.0013 68.92C89.6653 69.6853 89.3293 70.2827 88.9933 70.712C88.676 71.1413 88.3027 71.4587 87.8733 71.664C87.4627 71.8507 86.94 71.972 86.3053 72.028C85.8573 72.0653 85.4373 71.972 85.0453 71.748C84.672 71.5053 84.3453 71.216 84.0653 70.88C83.804 70.544 83.6173 70.264 83.5053 70.04C83.6173 69.928 83.6453 69.704 83.5893 69.368C83.552 69.032 83.468 68.6493 83.3373 68.22C83.2067 67.772 83.0667 67.352 82.9173 66.96C82.768 66.5493 82.6467 66.232 82.5533 66.008C82.3667 65.5413 82.152 65.2427 81.9093 65.112C81.6853 64.9627 81.4707 64.8973 81.2653 64.916C81.0413 64.9347 80.808 65.0467 80.5653 65.252C80.3413 65.4573 80.1827 65.7467 80.0893 66.12C80.0333 66.3627 79.94 66.708 79.8093 67.156C79.6787 67.5853 79.5573 67.996 79.4453 68.388C79.3333 68.7613 79.268 68.9947 79.2493 69.088C79.0253 69.872 78.82 70.4507 78.6333 70.824C78.4467 71.1787 78.2507 71.4213 78.0453 71.552C77.8587 71.664 77.616 71.7667 77.3173 71.86C76.888 71.9347 76.4307 71.9253 75.9453 71.832C75.4787 71.7387 75.0213 71.5893 74.5733 71.384C74.144 71.16 73.7707 70.9267 73.4533 70.684C73.1547 70.4413 72.9587 70.2267 72.8653 70.04C73.108 69.8347 73.192 69.5733 73.1173 69.256C73.0613 68.9387 72.996 68.6867 72.9213 68.5C72.7347 68.0147 72.4827 67.324 72.1653 66.428C71.848 65.532 71.484 64.524 71.0733 63.404C70.6813 62.2653 70.2707 61.0893 69.8413 59.876C69.4307 58.644 69.02 57.4587 68.6093 56.32C68.2173 55.1627 67.8533 54.1267 67.5173 53.212C67.2 52.2973 66.948 51.5693 66.7613 51.028C66.5747 50.468 66.4813 50.188 66.4813 50.188C66.7613 50.1507 67.2 50.1133 67.7973 50.076C68.3947 50.02 69.0387 50.02 69.7293 50.076C70.42 50.1133 71.064 50.2533 71.6613 50.496C72.2773 50.7387 72.7347 51.1307 73.0333 51.672C73.108 51.784 73.22 52.1013 73.3693 52.624C73.5187 53.128 73.6867 53.7253 73.8733 54.416C74.06 55.088 74.2373 55.7693 74.4053 56.46C74.592 57.132 74.7413 57.7107 74.8533 58.196C74.984 58.6813 75.0587 58.9707 75.0773 59.064C75.208 59.5307 75.3667 59.8853 75.5533 60.128C75.7587 60.352 75.9547 60.4827 76.1413 60.52C76.552 60.6133 76.916 60.2773 77.2333 59.512C77.2707 59.4373 77.336 59.1947 77.4293 58.784C77.5413 58.3547 77.672 57.8227 77.8213 57.188C77.9707 56.5533 78.12 55.8907 78.2693 55.2C78.4373 54.4907 78.5867 53.8187 78.7173 53.184C78.848 52.5493 78.9507 52.0173 79.0253 51.588C79.1187 51.14 79.1653 50.8787 79.1653 50.804C79.4453 50.58 79.8373 50.4587 80.3413 50.44C80.8453 50.4213 81.3307 50.5147 81.7973 50.72C82.2827 50.9067 82.6093 51.2333 82.7773 51.7C82.8333 51.868 82.9453 52.2413 83.1133 52.82C83.3 53.3987 83.5147 54.0893 83.7573 54.892C84.0187 55.676 84.28 56.488 84.5413 57.328C84.8213 58.1493 85.092 58.896 85.3533 59.568C85.708 60.5013 86.1187 60.9867 86.5853 61.024C87.0893 61.0613 87.5093 60.576 87.8453 59.568C88.0133 59.0453 88.1813 58.4573 88.3493 57.804C88.5173 57.132 88.6667 56.4507 88.7973 55.76C88.9467 55.0693 89.0773 54.444 89.1893 53.884C89.32 53.3053 89.432 52.8573 89.5253 52.54C89.6933 51.8867 89.7773 51.3267 89.7773 50.86C89.796 50.3933 89.7587 49.9733 89.6653 49.6ZM111.306 63.46C111.474 65.028 111.352 66.372 110.942 67.492C110.531 68.612 109.924 69.536 109.122 70.264C108.338 70.992 107.451 71.5333 106.462 71.888C105.491 72.224 104.52 72.392 103.55 72.392C102.598 72.392 101.627 72.224 100.638 71.888C99.6672 71.5333 98.7898 70.992 98.0058 70.264C97.2405 69.536 96.6432 68.612 96.2138 67.492C95.8032 66.372 95.6818 65.028 95.8498 63.46C96.0178 62.0227 96.4472 60.7627 97.1378 59.68C97.8472 58.5973 98.7432 57.748 99.8258 57.132C100.927 56.4973 102.131 56.1427 103.438 56.068C103.512 56.0493 103.587 55.9933 103.662 55.9C103.755 55.788 103.904 55.6947 104.11 55.62C104.334 55.5267 104.67 55.4987 105.118 55.536C106.182 55.8347 107.152 56.348 108.03 57.076C108.907 57.804 109.635 58.7093 110.214 59.792C110.811 60.8747 111.175 62.0973 111.306 63.46ZM103.298 67.912C103.895 67.912 104.408 67.772 104.838 67.492C105.267 67.212 105.612 66.8573 105.874 66.428C106.135 65.98 106.322 65.5133 106.434 65.028C106.564 64.5427 106.63 64.104 106.63 63.712C106.63 62.9093 106.499 62.284 106.238 61.836C105.976 61.388 105.379 60.9867 104.446 60.632C104.184 60.52 104.007 60.3707 103.914 60.184C103.82 59.9973 103.68 59.8947 103.494 59.876C102.878 59.8013 102.355 59.9693 101.926 60.38C101.496 60.7907 101.17 61.3413 100.946 62.032C100.722 62.7227 100.61 63.4693 100.61 64.272C100.61 65.0747 100.759 65.7467 101.058 66.288C101.375 66.8293 101.739 67.24 102.15 67.52C102.579 67.7813 102.962 67.912 103.298 67.912ZM122.583 55.788C122.956 55.6947 123.301 55.788 123.619 56.068C123.936 56.348 124.216 56.7307 124.459 57.216C124.72 57.6827 124.935 58.168 125.103 58.672C125.271 59.1573 125.401 59.568 125.495 59.904C125.588 60.24 125.635 60.408 125.635 60.408C125.635 60.408 125.411 60.4547 124.963 60.548C124.533 60.6227 123.992 60.7813 123.339 61.024C122.704 61.248 122.069 61.5933 121.435 62.06C121.061 62.34 120.707 62.676 120.371 63.068C120.035 63.46 119.745 63.964 119.503 64.58C119.26 65.1773 119.083 65.9707 118.971 66.96C118.915 67.464 118.905 67.9867 118.943 68.528C118.98 69.0693 118.999 69.5267 118.999 69.9C119.017 70.236 119.064 70.4787 119.139 70.628C119.232 70.7587 119.307 70.8707 119.363 70.964C119.12 71.188 118.672 71.44 118.019 71.72C117.384 71.9813 116.684 72.112 115.919 72.112C115.172 72.112 114.621 71.8693 114.267 71.384C113.912 70.8987 113.735 70.2267 113.735 69.368C113.735 69.1627 113.725 68.7147 113.707 68.024C113.707 67.3147 113.697 66.4653 113.679 65.476C113.679 64.4867 113.669 63.46 113.651 62.396C113.651 61.332 113.641 60.3427 113.623 59.428C113.623 58.4947 113.613 57.7387 113.595 57.16C113.595 56.5813 113.595 56.292 113.595 56.292C113.781 56.2547 114.099 56.2267 114.547 56.208C115.013 56.1893 115.517 56.208 116.059 56.264C116.6 56.32 117.104 56.4507 117.571 56.656C117.795 56.7493 118.093 56.8427 118.467 56.936C118.859 57.0107 119.232 57.048 119.587 57.048C119.96 57.048 120.231 56.992 120.399 56.88C120.753 56.6187 121.108 56.3947 121.463 56.208C121.836 56.0213 122.209 55.8813 122.583 55.788ZM127.797 69.704C127.797 69.5547 127.797 69.1533 127.797 68.5C127.797 67.828 127.797 66.9973 127.797 66.008C127.797 65.0187 127.788 63.936 127.769 62.76C127.769 61.5653 127.769 60.3613 127.769 59.148C127.769 57.9347 127.76 56.7867 127.741 55.704C127.741 54.6027 127.732 53.6507 127.713 52.848C127.695 52.0827 127.629 51.448 127.517 50.944C127.405 50.4213 127.34 50.104 127.321 49.992C127.545 49.9547 127.881 49.9453 128.329 49.964C128.777 49.964 129.272 50.02 129.813 50.132C130.373 50.2253 130.905 50.384 131.409 50.608C131.913 50.8133 132.333 51.112 132.669 51.504C133.005 51.8773 133.183 52.3533 133.201 52.932C133.22 53.2867 133.229 53.912 133.229 54.808C133.248 55.6853 133.257 56.7213 133.257 57.916C133.276 59.092 133.295 60.3053 133.313 61.556C133.332 62.788 133.341 63.9547 133.341 65.056C133.36 66.1573 133.369 67.0813 133.369 67.828C133.388 68.556 133.397 68.9853 133.397 69.116C133.397 69.508 133.5 69.8907 133.705 70.264C133.929 70.6187 134.163 70.8427 134.405 70.936C134.293 71.0853 134.041 71.2813 133.649 71.524C133.257 71.7667 132.8 71.9907 132.277 72.196C131.773 72.4013 131.26 72.532 130.737 72.588C130.308 72.6253 129.86 72.5227 129.393 72.28C128.945 72.056 128.563 71.72 128.245 71.272C127.947 70.824 127.797 70.3013 127.797 69.704ZM152.129 68.528C152.447 68.9013 152.913 69.1627 153.529 69.312C153.436 69.704 153.315 70.124 153.165 70.572C153.035 71.02 152.82 71.412 152.521 71.748C152.241 72.084 151.831 72.2987 151.289 72.392C151.047 72.448 150.739 72.4293 150.365 72.336C149.992 72.2427 149.544 72.1307 149.021 72C148.685 71.9067 148.256 71.888 147.733 71.944C147.211 71.9813 146.716 72.0373 146.249 72.112C145.801 72.1867 145.503 72.2427 145.353 72.28C145.148 72.336 144.943 72.364 144.737 72.364C144.532 72.3827 144.327 72.392 144.121 72.392C143.151 72.392 142.189 72.224 141.237 71.888C140.304 71.5333 139.464 70.992 138.717 70.264C137.971 69.536 137.401 68.612 137.009 67.492C136.636 66.372 136.533 65.028 136.701 63.46C136.813 62.3773 137.103 61.3693 137.569 60.436C138.055 59.5027 138.652 58.6907 139.361 58C140.071 57.2907 140.827 56.7493 141.629 56.376C142.451 55.984 143.253 55.788 144.037 55.788C144.205 55.788 144.364 55.788 144.513 55.788C144.681 55.788 144.84 55.7787 144.989 55.76C145.325 55.704 145.652 55.5173 145.969 55.2C146.287 54.8827 146.501 54.4907 146.613 54.024C146.669 53.7627 146.707 53.4547 146.725 53.1C146.744 52.7453 146.753 52.5307 146.753 52.456C146.809 52.0267 146.968 51.6627 147.229 51.364C147.491 51.0467 147.799 50.7947 148.153 50.608C148.639 50.3467 149.171 50.16 149.749 50.048C150.328 49.936 150.86 49.88 151.345 49.88C151.849 49.8613 152.223 49.88 152.465 49.936C152.447 50.048 152.409 50.4493 152.353 51.14C152.297 51.8307 152.232 52.6987 152.157 53.744C152.083 54.7893 152.008 55.9373 151.933 57.188C151.859 58.42 151.793 59.6613 151.737 60.912C151.7 62.1627 151.681 63.3293 151.681 64.412C151.681 65.4947 151.719 66.4 151.793 67.128C151.868 67.856 151.98 68.3227 152.129 68.528ZM141.713 64.384C141.657 65.112 141.741 65.7187 141.965 66.204C142.208 66.6707 142.507 67.0253 142.861 67.268C143.235 67.492 143.599 67.6133 143.953 67.632C144.625 67.6507 145.139 67.4827 145.493 67.128C145.867 66.7547 146.119 66.2693 146.249 65.672C146.38 65.056 146.445 64.4027 146.445 63.712C146.445 62.6667 146.24 61.9107 145.829 61.444C145.419 60.9773 144.775 60.772 143.897 60.828C143.337 60.8653 142.852 61.136 142.441 61.64C142.049 62.144 141.807 63.0587 141.713 64.384Z" fill="#2E5834"/>
</g>
<defs>
<clipPath id="clip0_34_474">
<rect width="173" height="90" fill="white"/>
</clipPath>
<clipPath id="clip1_34_474">
<rect width="39.36" height="48" fill="white" transform="translate(15.145 15) rotate(24.8147)"/>
</clipPath>
</defs>
</svg>
